<svg xmlns="http://www.w3.org/2000/svg" viewBox="0 0 1240 870" width="1240" height="870" font-family="Arial, sans-serif">
  <defs>
    <marker id="aB" markerWidth="8" markerHeight="6" refX="7" refY="3" orient="auto">
      <path d="M0,0 L0,6 L8,3 z" fill="#222"/>
    </marker>
    <marker id="aR" markerWidth="8" markerHeight="6" refX="7" refY="3" orient="auto">
      <path d="M0,0 L0,6 L8,3 z" fill="#CC0000"/>
    </marker>
    <marker id="aG" markerWidth="8" markerHeight="6" refX="7" refY="3" orient="auto">
      <path d="M0,0 L0,6 L8,3 z" fill="#C8A000"/>
    </marker>
  </defs>

  <!-- Background -->
  <rect width="1240" height="870" fill="#D6E8F5" rx="8"/>

  <!-- ===== SECTION LABELS ===== -->
  <text x="90" y="292" font-size="11" fill="#1A5276" font-weight="bold">① Alimentation</text>
  <text x="256" y="236" font-size="11" fill="#1A5276" font-weight="bold">② Contrôle</text>
  <text x="383" y="292" font-size="11" fill="#1A5276" font-weight="bold">③ Capteurs</text>
  <text x="685" y="255" font-size="11" fill="#1A5276" font-weight="bold">④ Stockage</text>
  <text x="845" y="255" font-size="11" fill="#1A5276" font-weight="bold">⑤ Isolement</text>
  <text x="1040" y="72" font-size="11" fill="#CC0000" font-weight="bold">© Sécurité PSV</text>

  <!-- ===== INPUT / OUTPUT ===== -->
  <text x="12" y="348" font-size="10" fill="#222" font-weight="bold">Entrée</text>
  <text x="12" y="361" font-size="10" fill="#222" font-weight="bold">GPL</text>
  <text x="12" y="374" font-size="10" fill="#222" font-weight="bold">10"</text>
  <line x1="50" y1="360" x2="83" y2="360" stroke="#222" stroke-width="2" marker-end="url(#aB)"/>

  <text x="1172" y="348" font-size="10" fill="#222" font-weight="bold">Sortie</text>
  <text x="1175" y="361" font-size="10" fill="#222" font-weight="bold">8"</text>
  <line x1="1110" y1="360" x2="1168" y2="360" stroke="#222" stroke-width="2" marker-end="url(#aB)"/>
  <text x="1152" y="355" font-size="9" fill="#333">8"</text>

  <!-- ===== TRAINS DE TRAITEMENT ===== -->
  <rect x="83" y="302" width="142" height="78" rx="10" fill="#1A5276" stroke="#0D2C4A" stroke-width="1.5"/>
  <text x="154" y="327" text-anchor="middle" font-size="11" fill="white" font-weight="bold">Trains de</text>
  <text x="154" y="343" text-anchor="middle" font-size="11" fill="white" font-weight="bold">Traitement</text>
  <text x="154" y="358" text-anchor="middle" font-size="8.5" fill="#AED6F1">10° GPLEL liq.</text>
  <text x="154" y="371" text-anchor="middle" font-size="8.5" fill="#AED6F1">MP04</text>

  <!-- Arrow Trains → UZ-049V -->
  <line x1="225" y1="360" x2="253" y2="360" stroke="#222" stroke-width="2" marker-end="url(#aB)"/>

  <!-- ===== FIC-013 ===== -->
  <rect x="253" y="240" width="100" height="55" rx="8" fill="#F5C518" stroke="#B8860B" stroke-width="1.5"/>
  <text x="303" y="260" text-anchor="middle" font-size="13" fill="#333" font-weight="bold">FIC-</text>
  <text x="303" y="276" text-anchor="middle" font-size="13" fill="#333" font-weight="bold">013</text>
  <text x="303" y="289" text-anchor="middle" font-size="9" fill="#555">Régul. Débit</text>
  <!-- FIC-013 → UZ-049V (down) -->
  <line x1="303" y1="295" x2="303" y2="318" stroke="#222" stroke-width="2" marker-end="url(#aB)"/>
  <!-- Trains ← → FIC-013 feedback arrow -->
  <line x1="225" y1="328" x2="253" y2="268" stroke="#222" stroke-width="1.5" stroke-dasharray="5,3" marker-end="url(#aB)"/>

  <!-- ===== UZ-049V ===== -->
  <rect x="253" y="318" width="108" height="64" rx="8" fill="#1A5276" stroke="#0D2C4A" stroke-width="1.5"/>
  <text x="307" y="338" text-anchor="middle" font-size="13" fill="white" font-weight="bold">UZ-</text>
  <text x="307" y="354" text-anchor="middle" font-size="13" fill="white" font-weight="bold">049V</text>
  <text x="307" y="370" text-anchor="middle" font-size="8.5" fill="#AED6F1">Vanne remplissage</text>

  <!-- Arrow UZ-049V → LI-048 -->
  <line x1="361" y1="350" x2="387" y2="350" stroke="#222" stroke-width="2" marker-end="url(#aB)"/>

  <!-- ===== LI-048 ===== -->
  <rect x="387" y="315" width="88" height="68" rx="8" fill="#F5C518" stroke="#B8860B" stroke-width="1.5"/>
  <text x="431" y="336" text-anchor="middle" font-size="13" fill="#333" font-weight="bold">LI-</text>
  <text x="431" y="352" text-anchor="middle" font-size="13" fill="#333" font-weight="bold">048</text>
  <text x="431" y="367" text-anchor="middle" font-size="9" fill="#555">Niveau</text>

  <!-- Arrow LI-048 → PIC-006 -->
  <line x1="475" y1="350" x2="498" y2="350" stroke="#222" stroke-width="2" marker-end="url(#aB)"/>

  <!-- ===== PIC-006 (circle) ===== -->
  <circle cx="528" cy="350" r="44" fill="#CC2200" stroke="#8B1500" stroke-width="2"/>
  <text x="528" y="342" text-anchor="middle" font-size="12" fill="white" font-weight="bold">PIC-</text>
  <text x="528" y="358" text-anchor="middle" font-size="12" fill="white" font-weight="bold">006</text>
  <text x="528" y="371" text-anchor="middle" font-size="8.5" fill="#FFB3B3">Pression</text>

  <!-- Arrow PIC-006 → LZH-047 -->
  <line x1="572" y1="350" x2="595" y2="350" stroke="#222" stroke-width="2" marker-end="url(#aB)"/>

  <!-- ===== LZH-047 ===== -->
  <rect x="595" y="315" width="112" height="68" rx="8" fill="#F5C518" stroke="#B8860B" stroke-width="1.5"/>
  <text x="651" y="334" text-anchor="middle" font-size="12" fill="#333" font-weight="bold">LZH-</text>
  <text x="651" y="350" text-anchor="middle" font-size="12" fill="#333" font-weight="bold">047</text>
  <text x="651" y="363" text-anchor="middle" font-size="8.5" fill="#555">Niv. Très</text>
  <text x="651" y="375" text-anchor="middle" font-size="8.5" fill="#555">Haut</text>

  <!-- Arrow LZH-047 → SPHÈRE -->
  <line x1="707" y1="350" x2="728" y2="350" stroke="#222" stroke-width="2" marker-end="url(#aB)"/>

  <!-- ===== SPHÈRE 40T002 A/B ===== -->
  <circle cx="800" cy="345" r="78" fill="#1A5276" stroke="#0D2C4A" stroke-width="2"/>
  <text x="800" y="314" text-anchor="middle" font-size="10.5" fill="white" font-weight="bold">SPHÈRE</text>
  <text x="800" y="330" text-anchor="middle" font-size="13" fill="white" font-weight="bold">40T002</text>
  <text x="800" y="347" text-anchor="middle" font-size="13" fill="white" font-weight="bold">A/B</text>
  <text x="787" y="363" text-anchor="middle" font-size="8.5" fill="#AED6F1">3591</text>
  <text x="813" y="363" text-anchor="middle" font-size="8.5" fill="#AED6F1">5.34 barg</text>
  <text x="800" y="377" text-anchor="middle" font-size="8.5" fill="#AED6F1">m³        21°C</text>

  <!-- Arrow SPHÈRE → ESD vanne -->
  <line x1="878" y1="345" x2="907" y2="345" stroke="#222" stroke-width="2" marker-end="url(#aB)"/>
  <text x="884" y="340" font-size="8.5" fill="#333">8"</text>

  <!-- ===== ESD VANNE ===== -->
  <rect x="907" y="298" width="115" height="78" rx="8" fill="#1A5276" stroke="#0D2C4A" stroke-width="1.5"/>
  <text x="964" y="322" text-anchor="middle" font-size="13" fill="white" font-weight="bold">ESD</text>
  <text x="964" y="338" text-anchor="middle" font-size="13" fill="white" font-weight="bold">vanne</text>
  <text x="964" y="356" text-anchor="middle" font-size="8.5" fill="#AED6F1">UZ-051V</text>

  <!-- Arrow ESD vanne → RD -->
  <line x1="1022" y1="345" x2="1048" y2="345" stroke="#222" stroke-width="2" marker-end="url(#aB)"/>

  <!-- ===== RD HXCV012 ===== -->
  <rect x="1048" y="298" width="120" height="78" rx="8" fill="#CC2200" stroke="#8B1500" stroke-width="1.5"/>
  <text x="1108" y="320" text-anchor="middle" font-size="12" fill="white" font-weight="bold">RD</text>
  <text x="1108" y="336" text-anchor="middle" font-size="12" fill="white" font-weight="bold">HXCV012</text>
  <text x="1108" y="352" text-anchor="middle" font-size="8.5" fill="#FFB3B3">Vide</text>
  <text x="1108" y="365" text-anchor="middle" font-size="8.5" fill="#FFB3B3">vite</text>

  <!-- ===== ACT ===== -->
  <rect x="945" y="228" width="68" height="44" rx="8" fill="#1A5276" stroke="#0D2C4A" stroke-width="1.5"/>
  <text x="979" y="255" text-anchor="middle" font-size="14" fill="white" font-weight="bold">Act</text>
  <!-- Act → ESD vanne (down) -->
  <line x1="979" y1="272" x2="979" y2="298" stroke="#222" stroke-width="2" marker-end="url(#aB)"/>

  <!-- ===== PAH LOGIC ===== -->
  <rect x="420" y="83" width="110" height="55" rx="8" fill="#F5C518" stroke="#B8860B" stroke-width="1.5"/>
  <text x="475" y="106" text-anchor="middle" font-size="13" fill="#333" font-weight="bold">PAH</text>
  <text x="475" y="122" text-anchor="middle" font-size="13" fill="#333" font-weight="bold">Logic</text>

  <!-- PAH → Alarm Opérateur -->
  <line x1="530" y1="110" x2="572" y2="110" stroke="#222" stroke-width="2" marker-end="url(#aB)"/>

  <!-- ===== ALARM OPÉRATEUR ===== -->
  <rect x="572" y="83" width="130" height="55" rx="8" fill="#F5C518" stroke="#B8860B" stroke-width="1.5"/>
  <text x="637" y="106" text-anchor="middle" font-size="12" fill="#333" font-weight="bold">Alarm</text>
  <text x="637" y="122" text-anchor="middle" font-size="12" fill="#333" font-weight="bold">Opérateur 🔔</text>

  <!-- Alarm Opérateur → LAH -->
  <line x1="702" y1="110" x2="755" y2="110" stroke="#222" stroke-width="2" marker-end="url(#aB)"/>

  <!-- ===== LAH ===== -->
  <rect x="755" y="83" width="122" height="55" rx="8" fill="#F5C518" stroke="#B8860B" stroke-width="1.5"/>
  <text x="816" y="103" text-anchor="middle" font-size="14" fill="#333" font-weight="bold">LAH</text>
  <text x="816" y="117" text-anchor="middle" font-size="8.5" fill="#555">Alarme</text>
  <text x="816" y="130" text-anchor="middle" font-size="8.5" fill="#555">Niv. Haut</text>

  <!-- LAH → LAL (down) -->
  <line x1="816" y1="138" x2="816" y2="163" stroke="#222" stroke-width="1.5" marker-end="url(#aB)"/>

  <!-- ===== LAL ===== -->
  <rect x="755" y="163" width="122" height="55" rx="8" fill="#F5C518" stroke="#B8860B" stroke-width="1.5"/>
  <text x="816" y="182" text-anchor="middle" font-size="14" fill="#333" font-weight="bold">LAL</text>
  <text x="816" y="196" text-anchor="middle" font-size="8.5" fill="#555">Alarme Niv.</text>
  <text x="816" y="209" text-anchor="middle" font-size="8.5" fill="#555">Bas</text>

  <!-- ===== PAL-006 ===== -->
  <rect x="420" y="180" width="112" height="55" rx="8" fill="#F5C518" stroke="#B8860B" stroke-width="1.5"/>
  <text x="476" y="199" text-anchor="middle" font-size="12" fill="#333" font-weight="bold">PAL-</text>
  <text x="476" y="215" text-anchor="middle" font-size="12" fill="#333" font-weight="bold">006</text>
  <text x="476" y="228" text-anchor="middle" font-size="8.5" fill="#555">Alarme P. basse</text>

  <!-- ===== PSV-025 A/B ===== -->
  <rect x="1042" y="88" width="158" height="55" rx="8" fill="#CC2200" stroke="#8B1500" stroke-width="1.5"/>
  <text x="1121" y="108" text-anchor="middle" font-size="11" fill="white" font-weight="bold">PSV-</text>
  <text x="1121" y="123" text-anchor="middle" font-size="11" fill="white" font-weight="bold">025 A/B</text>
  <text x="1121" y="136" text-anchor="middle" font-size="8.5" fill="#FFB3B3">→ Torche  5.98b</text>

  <!-- ===== PSV-024 A/B ===== -->
  <rect x="1042" y="165" width="158" height="55" rx="8" fill="#CC2200" stroke="#8B1500" stroke-width="1.5"/>
  <text x="1121" y="185" text-anchor="middle" font-size="11" fill="white" font-weight="bold">PSV-</text>
  <text x="1121" y="200" text-anchor="middle" font-size="11" fill="white" font-weight="bold">024 A/B</text>
  <text x="1121" y="213" text-anchor="middle" font-size="8.5" fill="#FFB3B3">→ Atmos.  6.28b</text>

  <!-- ===== DIAMOND ===== -->
  <polygon points="1108,418 1130,440 1108,462 1086,440" fill="#AED6F1" stroke="#5DADE2" stroke-width="1.5"/>

  <!-- ===== DXCV0140 ===== -->
  <rect x="1020" y="565" width="155" height="58" rx="8" fill="#1A5276" stroke="#0D2C4A" stroke-width="1.5"/>
  <text x="1097" y="589" text-anchor="middle" font-size="12" fill="white" font-weight="bold">DXCV0140</text>
  <text x="1097" y="606" text-anchor="middle" font-size="9" fill="#AED6F1">pressurisation</text>

  <!-- ===== TORCHE ===== -->
  <rect x="1028" y="655" width="135" height="65" rx="8" fill="#5B2C6F" stroke="#3B1A4A" stroke-width="2"/>
  <text x="1095" y="679" text-anchor="middle" font-size="14" fill="white" font-weight="bold">Torche</text>
  <text x="1095" y="706" text-anchor="middle" font-size="22">🔥</text>

  <!-- ===== PSD LOGIC ===== -->
  <rect x="418" y="473" width="112" height="65" rx="8" fill="#CC2200" stroke="#8B1500" stroke-width="1.5"/>
  <text x="474" y="499" text-anchor="middle" font-size="13" fill="white" font-weight="bold">PSD</text>
  <text x="474" y="516" text-anchor="middle" font-size="13" fill="white" font-weight="bold">Logic</text>

  <!-- ===== ESD LOGIC ===== -->
  <rect x="572" y="473" width="115" height="65" rx="8" fill="#AED6F1" stroke="#5DADE2" stroke-width="1.5"/>
  <text x="629" y="499" text-anchor="middle" font-size="13" fill="#1A5276" font-weight="bold">ESD</text>
  <text x="629" y="516" text-anchor="middle" font-size="13" fill="#1A5276" font-weight="bold">Logic</text>

  <!-- ===== I-ZL ===== -->
  <rect x="718" y="473" width="118" height="65" rx="8" fill="#CC2200" stroke="#8B1500" stroke-width="1.5"/>
  <text x="777" y="494" text-anchor="middle" font-size="13" fill="white" font-weight="bold">I-ZL</text>
  <text x="777" y="508" text-anchor="middle" font-size="8.5" fill="#FFB3B3">Niv. Très</text>
  <text x="777" y="521" text-anchor="middle" font-size="8.5" fill="#FFB3B3">Bas</text>

  <!-- ===== ARRÊT COMPRESSEUR ===== -->
  <rect x="148" y="473" width="132" height="65" rx="8" fill="#CC2200" stroke="#8B1500" stroke-width="1.5"/>
  <text x="214" y="499" text-anchor="middle" font-size="12" fill="white" font-weight="bold">Arrêt</text>
  <text x="214" y="516" text-anchor="middle" font-size="10" fill="#FFB3B3">Compresseur</text>

  <!-- ===== COURONNE ===== -->
  <rect x="387" y="643" width="172" height="68" rx="8" fill="#AED6F1" stroke="#5DADE2" stroke-width="1.5"/>
  <text x="473" y="664" text-anchor="middle" font-size="11" fill="#1A5276" font-weight="bold">Couronne</text>
  <text x="473" y="679" text-anchor="middle" font-size="11" fill="#1A5276" font-weight="bold">Refroidissement</text>
  <text x="473" y="695" text-anchor="middle" font-size="9" fill="#1A5276">+ Déluge</text>

  <!-- ===== DÉTECT. GAZ ===== -->
  <rect x="577" y="643" width="145" height="68" rx="8" fill="#1E8449" stroke="#145A32" stroke-width="1.5"/>
  <text x="649" y="663" text-anchor="middle" font-size="11" fill="white" font-weight="bold">Détect.</text>
  <text x="649" y="679" text-anchor="middle" font-size="11" fill="white" font-weight="bold">Gaz</text>
  <text x="649" y="693" text-anchor="middle" font-size="8.5" fill="#A9DFBF">Zone sphères</text>
  <text x="649" y="705" text-anchor="middle" font-size="8.5" fill="#A9DFBF">+ pomperie</text>

  <!-- ===== DÉTECT. FLAMME ===== -->
  <rect x="742" y="643" width="148" height="68" rx="8" fill="#1E8449" stroke="#145A32" stroke-width="1.5"/>
  <text x="816" y="663" text-anchor="middle" font-size="11" fill="white" font-weight="bold">Détect.</text>
  <text x="816" y="679" text-anchor="middle" font-size="11" fill="white" font-weight="bold">Flamme</text>
  <text x="816" y="693" text-anchor="middle" font-size="8.5" fill="#A9DFBF">Déluge</text>
  <text x="816" y="705" text-anchor="middle" font-size="8.5" fill="#A9DFBF">eau</text>

  <!-- ================================================================ -->
  <!-- ===== CONNECTIONS / ARROWS ===== -->
  <!-- ================================================================ -->

  <!-- PIC-006 → PAH Logic (gold dashed, up) -->
  <polyline points="528,306 528,110 530,110" fill="none" stroke="#C8A000" stroke-width="1.5" stroke-dasharray="6,3" marker-end="url(#aG)"/>

  <!-- PIC-006 → PAL-006 (gold dashed, down-left) -->
  <line x1="502" y1="384" x2="480" y2="180" fill="none" stroke="#C8A000" stroke-width="1.5" stroke-dasharray="6,3" marker-end="url(#aG)"/>

  <!-- LI-048 → PAH Logic (gold dashed, up) -->
  <polyline points="431,315 431,110 420,110" fill="none" stroke="#C8A000" stroke-width="1.5" stroke-dasharray="6,3" marker-end="url(#aG)"/>

  <!-- PIC-006 → PSD Logic (red dashed, down) -->
  <polyline points="519,394 519,505 530,505" fill="none" stroke="#CC0000" stroke-width="1.5" stroke-dasharray="6,3" marker-end="url(#aR)"/>

  <!-- PSD Logic → Arrêt Compresseur (solid red, left) -->
  <line x1="418" y1="505" x2="280" y2="505" stroke="#CC0000" stroke-width="2" marker-end="url(#aR)"/>

  <!-- Arrêt Compresseur → UZ-049V (red dashed, up) -->
  <polyline points="214,473 214,350 253,350" fill="none" stroke="#CC0000" stroke-width="1.5" stroke-dasharray="6,3" marker-end="url(#aR)"/>

  <!-- LZH-047 → ESD Logic (black dashed, down) -->
  <polyline points="651,383 651,505 687,505" fill="none" stroke="#222" stroke-width="1.5" stroke-dasharray="5,3" marker-end="url(#aB)"/>

  <!-- I-ZL → ESD Logic (red dashed, left) -->
  <line x1="718" y1="505" x2="687" y2="505" stroke="#CC0000" stroke-width="1.5" stroke-dasharray="6,3" marker-end="url(#aR)"/>

  <!-- ESD Logic → Act (up-right, red dashed) -->
  <polyline points="687,473 820,473 820,250 1013,250" fill="none" stroke="#CC0000" stroke-width="1.5" stroke-dasharray="6,3" marker-end="url(#aR)"/>

  <!-- I-ZL → DXCV0140 (red dashed, right) -->
  <polyline points="836,505 970,505 970,594 1020,594" fill="none" stroke="#CC0000" stroke-width="1.5" stroke-dasharray="6,3" marker-end="url(#aR)"/>

  <!-- SPHÈRE → PSV-025 (red dashed, up-right) -->
  <line x1="870" y1="290" x2="1042" y2="128" stroke="#CC0000" stroke-width="1.5" stroke-dasharray="6,3" marker-end="url(#aR)"/>

  <!-- SPHÈRE → PSV-024 (red dashed, up-right) -->
  <line x1="875" y1="310" x2="1042" y2="200" stroke="#CC0000" stroke-width="1.5" stroke-dasharray="6,3" marker-end="url(#aR)"/>

  <!-- RD → Diamond (solid black, down) -->
  <line x1="1108" y1="376" x2="1108" y2="418" stroke="#222" stroke-width="2" marker-end="url(#aB)"/>

  <!-- Diamond → DXCV0140 (solid black, down) -->
  <line x1="1108" y1="462" x2="1097" y2="565" stroke="#222" stroke-width="2" marker-end="url(#aB)"/>

  <!-- DXCV0140 → Torche (red dashed, down) -->
  <line x1="1097" y1="623" x2="1092" y2="655" stroke="#CC0000" stroke-width="2" stroke-dasharray="6,3" marker-end="url(#aR)"/>

  <!-- ================================================================ -->
  <!-- ===== LEGEND ===== -->
  <!-- ================================================================ -->
  <rect x="10" y="762" width="1220" height="98" fill="white" stroke="#ccc" rx="6"/>

  <!-- Row 1 -->
  <rect x="20" y="774" width="18" height="13" rx="3" fill="#F5C518" stroke="#B8860B"/>
  <text x="44" y="785" font-size="9" fill="#333">Capteur / Alarme (LI-048, PIC-006, LAH, LAL, PAL-006, PAH Logic)</text>

  <rect x="390" y="774" width="18" height="13" rx="3" fill="#CC2200" stroke="#8B1500"/>
  <text x="414" y="785" font-size="9" fill="#333">Sécurité / Arrêt d'urgence (PSD Logic, PSV, LZH, I-ZL)</text>

  <rect x="730" y="774" width="18" height="13" rx="3" fill="#1A5276" stroke="#0D2C4A"/>
  <text x="754" y="785" font-size="9" fill="#333">Vannes &amp; Sphère (UZ-049V, UZ-051V, ESD vanne, HXCVO012)</text>

  <!-- Row 2 -->
  <rect x="20" y="800" width="18" height="13" rx="3" fill="#AED6F1" stroke="#5DADE2"/>
  <text x="44" y="811" font-size="9" fill="#333">Logiques / Actionneurs (ESD Logic, Act, Couronne)</text>

  <rect x="390" y="800" width="18" height="13" rx="3" fill="#5B2C6F" stroke="#3B1A4A"/>
  <text x="414" y="811" font-size="9" fill="#333">Torche (évacuation finale)</text>

  <rect x="730" y="800" width="18" height="13" rx="3" fill="#1E8449" stroke="#145A32"/>
  <text x="754" y="811" font-size="9" fill="#333">Détection (gaz + flamme)</text>

  <!-- Arrow legend -->
  <line x1="920" y1="780" x2="960" y2="780" stroke="#222" stroke-width="2" marker-end="url(#aB)"/>
  <text x="966" y="784" font-size="9" fill="#333">Flux GPL (procédé)</text>

  <line x1="920" y1="808" x2="960" y2="808" stroke="#C8A000" stroke-width="1.5" stroke-dasharray="5,3" marker-end="url(#aG)"/>
  <text x="966" y="812" font-size="9" fill="#333">Signal alarme / commande</text>

  <!-- Row 3 -->
  <line x1="20" y1="840" x2="60" y2="840" stroke="#CC0000" stroke-width="1.5" stroke-dasharray="5,3" marker-end="url(#aR)"/>
  <text x="68" y="844" font-size="9" fill="#333">Signal sécurité (urgence)</text>

</svg>
